# xmcd
#
# Track frame offsets: 
#        150
#        15020
#        24685
#        39743
#        57088
#        79167
#        95449
#        106518
#        120139
#        129608
#        148622
#        168070
#        179625
#        184132
#        196245
#        211608
#        240614
#        254155
#        271627
#        292150
#
# Disc length: 4243 seconds
#
# Revision: 2
# Processed by: cddbd v1.5.1PL0 Copyright (c) Steve Scherf et al.
# Submitted via: ExactAudioCopy v0.95a5
#
DISCID=0b109114
DTITLE=Piter Wilkens - Nocht and Wilkens
DYEAR=2001
DGENRE=Frysk
TTITLE0=Oeral op 'e wrâld
TTITLE1=Wolkomstblues (Tútsje!)
TTITLE2=Ien bier
TTITLE3=Kykjeflap
TTITLE4=Lytse snieman
TTITLE5=De hik
TTITLE6=Wer silsto hinne? (it Volvo 740 liet)
TTITLE7=Omrop Fryslân tv
TTITLE8=Gerryt Sinnema 's video terreur
TTITLE9=De Tsiene
TTITLE10=Wilko de minstreel
TTITLE11=Jou de rún in raam (liet foar it Frysk damjen)
TTITLE12=No, wat bliuwt er goed (Frysk jierdeilietsje)
TTITLE13=Metaaldetektors
TTITLE14=Tichter by dy
TTITLE15=De lenhoarn fan de Bitgumer bosk
TTITLE16=In nij bedriuw
TTITLE17=Skip mei jild (de strúsfûgel fan Douwe Aukes)
TTITLE18=It fûgelbekfers
TTITLE19=It paad werom
EXTD=
EXTT0=
EXTT1=
EXTT2=
EXTT3=
EXTT4=
EXTT5=
EXTT6=
EXTT7=
EXTT8=
EXTT9=
EXTT10=
EXTT11=
EXTT12=
EXTT13=
EXTT14=
EXTT15=
EXTT16=
EXTT17=
EXTT18=
EXTT19=
PLAYORDER=
